<svg width="2147" height="2150" viewBox="0 0 2147 2150" fill="none" xmlns="http://www.w3.org/2000/svg">
<path d="M1114.69 0.0636776C1113.29 0.11743 1108.08 0.278686 1103.13 0.439942C974.477 4.57885 846.305 33.9543 728.748 86.2282C710.069 94.5329 684.671 106.869 667.605 115.872C563.406 170.968 470.414 243.104 390.914 330.478C380.674 341.739 370.327 353.672 359.684 366.491C356.325 370.523 353.933 373.157 352.428 374.42C333.372 390.438 306.604 415.567 286.016 436.772C205.71 519.443 141.772 612.031 93.4754 715.611C41.3893 827.254 10.1861 949.271 2.01571 1073.2C0.376267 1098.24 0 1110.77 0 1140.79C0 1167.15 0.134381 1172.96 1.10192 1192.26C8.62726 1343.35 49.8553 1489.99 122.099 1622.68C161.553 1695.16 210.252 1763.18 266.155 1823.92C284.565 1843.95 307.302 1866.63 327.218 1884.88C391.21 1943.52 461.921 1993.32 539.136 2034.15C547.871 2038.74 570.501 2050.03 579.585 2054.31C730.603 2125.15 894.171 2157.08 1062.01 2148.51C1167.93 2143.08 1272.64 2120.85 1371.57 2082.77C1532.24 2020.9 1675.01 1918.23 1785.63 1785.01C1791.73 1777.67 1791.81 1777.59 1798.39 1771.87C1930.71 1657.1 2030.42 1511.33 2088.95 1347.06C2092.31 1337.66 2099.62 1315.62 2102.63 1305.81C2127.28 1225.4 2141.74 1142.59 2145.8 1058.41C2146.68 1039.98 2146.84 1031.7 2146.84 1008.96C2146.84 986.252 2146.66 977.518 2145.8 959.376C2138.24 803.254 2095.03 652.452 2018.86 516.46C1983.25 452.844 1941.16 393.744 1892.35 338.809C1871.26 315.051 1845.78 289.088 1822.21 267.319C1737.63 189.217 1640.04 125.924 1534.9 80.9336C1439.7 40.2165 1340.15 14.7111 1236.84 4.6326C1217.41 2.7244 1198.28 1.43435 1173.82 0.413066C1167.48 0.144306 1120.5 -0.124455 1114.69 0.0636776ZM1164.81 51.7731C1169.54 51.9075 1176.37 52.1494 1180 52.3107C1344.43 59.4059 1503.16 108.428 1642.67 195.157C1725.85 246.866 1801.03 311.369 1864.91 385.815C1961.48 498.372 2030.34 631.086 2066.38 774.066C2081.7 834.887 2091.05 897.347 2094.17 960.048C2095.11 978.432 2095.27 985.581 2095.27 1008.96C2095.27 1036.27 2094.84 1049.95 2093.25 1073.73C2085.92 1183.63 2059.68 1291.27 2015.74 1391.87C2008.78 1407.83 2002.95 1420.22 1994.43 1437.23C1983.06 1459.94 1972.85 1478.62 1960.13 1499.85C1952.48 1512.62 1939.06 1533.91 1938.82 1533.64C1938.77 1533.58 1939.57 1531.49 1940.62 1528.99C1998.57 1390.74 2024.66 1238.38 2016.52 1085.96C2010.21 967.735 1983.44 852.679 1937.1 744.368C1878.59 607.65 1791.06 486.17 1679.39 386.675C1600.67 316.556 1510.68 258.772 1414.36 216.469C1265.79 151.214 1103.75 123.048 939.861 134.041C823.46 141.835 708.725 170.001 602.457 216.899C598.56 218.62 595.335 219.99 595.281 219.936C595.146 219.829 617.561 204.94 624.2 200.747C664.568 175.161 705.231 153.284 747.427 134.417C797.04 112.244 848.482 94.3448 901.159 80.9336C968.941 63.6524 1038.66 53.9232 1109.72 51.8C1119.88 51.4775 1155.06 51.4775 1164.81 51.7731ZM1039.17 183.734C1061.66 184.487 1082.98 185.885 1103.67 187.9C1231.92 200.505 1356.09 238.911 1468.92 300.86C1568.33 355.445 1657.4 427.339 1732.06 513.234C1797.35 588.38 1850.37 672.905 1889.53 764.256C1934.17 868.455 1959.92 980.689 1965.32 1094.7C1966.61 1122 1966.72 1154.63 1965.59 1181.1C1963.14 1238.51 1955.81 1294.44 1943.55 1349.62C1912.27 1490.26 1849.22 1622.33 1759.34 1735.53C1754.77 1741.28 1754.75 1741.31 1749.1 1746.01C1707.15 1780.87 1660.55 1813.2 1612.89 1840.48C1481.63 1915.6 1335.61 1958.09 1183.9 1965.35C1170.51 1965.99 1163.39 1966.18 1146 1966.34C1109.75 1966.66 1076.77 1965.16 1040.92 1961.56C868.934 1944.33 704.909 1880.58 565.932 1776.89C528.252 1748.81 494.576 1719.62 460.927 1685.97C427.385 1652.46 398.923 1619.61 370.757 1581.96C280.722 1461.61 220.788 1323.17 194.852 1175.62C188.026 1136.76 183.511 1096.47 181.549 1056.67C180.823 1041.94 180.689 1036.83 180.554 1016.08C180.339 984.989 180.984 965.02 183.054 937.069C190.283 839.402 212.376 743.858 248.685 653.124C269.461 601.226 295.289 550.323 325.068 502.618C344.123 472.087 366.242 440.777 388.092 413.39C392.016 408.472 392.392 408.122 397.391 403.956C508.632 311.718 637.235 246.517 776.453 211.712C846.95 194.109 918.413 184.756 993.613 183.358C1001.46 183.224 1030.84 183.466 1039.17 183.734ZM207.914 616.492C207.78 616.841 206.866 619.045 205.872 621.41C161.472 727.544 135.375 844.078 129.946 960.317C129.221 975.69 129.086 981.253 128.952 1001.17C128.791 1022.72 129.033 1036.81 129.812 1054.65C136.719 1209.43 178.727 1359.26 253.254 1494.75C357.05 1683.47 519.463 1835 714.719 1925.27C832.168 1979.56 958.54 2010.52 1088.35 2016.81C1106.49 2017.67 1115.23 2017.86 1137.94 2017.86C1160.68 2017.86 1168.95 2017.7 1187.39 2016.81C1297.07 2011.52 1404.34 1988.59 1506.25 1948.68C1518.72 1943.82 1535.46 1936.83 1546.43 1931.91C1548.93 1930.78 1551.03 1929.92 1551.08 1929.98C1551.21 1930.11 1533.23 1942.15 1525.49 1947.12C1450.48 1995.26 1370.15 2032.24 1284.95 2057.88C1211.1 2080.13 1133.21 2093.46 1055.83 2097.17C1026.32 2098.57 992.565 2098.62 964.587 2097.31C818.568 2090.43 679.135 2051.59 551.768 1982.33C458.857 1931.83 373.767 1865.18 302.223 1786.89C202.297 1677.56 129.248 1547.4 88.6914 1406.32C67.7818 1333.6 55.6606 1259.34 52.2742 1182.85C51.1723 1157.91 51.1723 1123.72 52.2742 1098.59C59.8264 927.716 111.886 764.498 204.501 621.195C206.382 618.293 207.968 615.901 208.049 615.901C208.102 615.901 208.049 616.17 207.914 616.492Z" fill="white"/>
<path d="M958.137 656.672C939.135 657.425 923.332 658.903 906.534 661.483C801.126 677.662 705.823 731.603 637.074 813.978C582.515 879.394 548.194 959.726 538.76 1044.17C536.637 1063.06 535.912 1078.38 536.127 1098.46C536.288 1111.74 536.476 1116.47 537.255 1126.95C543.948 1214.75 576.79 1297.93 631.913 1366.68C647.152 1385.68 666.073 1405.52 684.268 1421.54C756.726 1485.29 847.004 1522.94 943.22 1529.52C962.947 1530.9 986.625 1530.79 1006.51 1529.28C1035.51 1527.05 1065.61 1521.7 1092.6 1513.96C1095.45 1513.16 1098.05 1512.49 1098.4 1512.49C1098.75 1512.49 1099.67 1512.7 1100.47 1513C1101.92 1513.48 1101.98 1513.48 1103.54 1513C1104.42 1512.73 1105.39 1512.49 1105.71 1512.49C1106.04 1512.49 1108.62 1513.16 1111.49 1513.99C1139.79 1522.08 1170.7 1527.46 1201.23 1529.52C1220.96 1530.9 1244.64 1530.79 1264.53 1529.28C1343.94 1523.21 1420.03 1495.63 1484.56 1449.51C1535.33 1413.23 1577.58 1366.92 1608.86 1313.33C1642.67 1255.39 1662.51 1190.7 1667.1 1123.32C1668.47 1103.59 1668.37 1079.92 1666.86 1060.03C1658.23 946.933 1606.23 842.224 1521.06 766.541C1459.46 711.795 1383.43 675.512 1302.53 662.262C1276.16 657.962 1253.4 656.269 1226.09 656.565C1212.82 656.726 1208.09 656.914 1197.6 657.693C1168.52 659.924 1139.07 665.165 1111.33 673.04L1105.98 674.572L1103.94 674.061C1102.84 673.792 1101.87 673.577 1101.79 673.604C1101.71 673.631 1100.88 673.846 1099.91 674.115L1098.16 674.572L1091.85 672.798C1058.28 663.391 1025.49 658.204 990.254 656.753C984.448 656.511 963.297 656.457 958.137 656.672ZM1108.27 678.28C1168.95 697.631 1225.93 730.339 1272.02 772.32C1302.39 799.975 1326.99 828.867 1347.76 861.279C1381.76 914.36 1403.39 972.842 1412.05 1035.03C1412.72 1039.92 1414.2 1052.99 1414.49 1056.67C1414.58 1057.77 1414.71 1059.22 1414.76 1059.89C1416.13 1073.98 1416.38 1102.2 1415.3 1119.42C1414.71 1128.64 1413.45 1142.24 1412.64 1147.78C1412.56 1148.29 1412.29 1150.17 1412.08 1151.94C1410.79 1161.73 1407.75 1178.2 1405.09 1189.7C1390.9 1251.47 1363.11 1309.33 1323.44 1359.83C1308.92 1378.27 1291.27 1397.13 1272.29 1414.39C1234.07 1449.19 1188.2 1477.82 1139.15 1497.49C1129.26 1501.47 1108.35 1508.86 1102.84 1510.34C1102 1510.58 1100.96 1510.28 1093.03 1507.67C1044.38 1491.6 1001.3 1469.13 961.496 1439.03C932.927 1417.45 905.137 1390.39 882.883 1362.52C836.441 1304.41 806.394 1237.38 793.95 1164.17C793.036 1158.9 791.316 1146.73 790.967 1143.34C790.886 1142.46 790.698 1140.87 790.563 1139.85C790.429 1138.8 790.268 1137.19 790.16 1136.22C790.08 1135.25 789.972 1133.86 789.892 1133.13C789.462 1128.56 789.085 1123.89 788.655 1117.27C788.198 1110.61 788.037 1083.97 788.387 1076.02C789.623 1047.88 793.09 1022.7 799.46 995.391C812.898 937.769 838.538 883.13 874.793 834.806C891.161 812.983 910.324 792.1 932.147 772.239C978.213 730.366 1034.12 698.249 1095.61 678.334C1098.94 677.259 1101.79 676.399 1101.95 676.372C1102.11 676.372 1104.96 677.232 1108.27 678.28Z" fill="white"/>
</svg>
