<svg width="394" height="394" viewBox="0 0 394 394" fill="none" xmlns="http://www.w3.org/2000/svg">
<path d="M57.1425 195.252C57.1923 193.798 58.7935 192.938 60.0325 193.701V193.701C63.5284 195.853 67.9596 195.784 71.3794 193.514C82.2704 186.281 107.284 168.567 133.407 142.417C137.592 138.227 143.507 136.29 149.424 136.562C150.27 136.601 151.153 136.63 152.067 136.645C162.472 136.822 164.279 127.29 153.94 126.106V126.106C142.231 124.765 114.684 131.548 97.0481 140.295C90.7592 143.414 85.585 145.611 80.2712 141.023V141.023C75.0725 136.536 70.8457 126.441 72.1911 119.706C74.1711 109.795 76.0171 95.6532 80.2188 80.995C86.7188 58.3226 99.9544 27.4021 116.456 3.10066C116.613 2.86881 116.971 3.07953 116.845 3.3301C112.68 11.625 101.531 35.5915 94.0576 68.0997C87.0344 98.6499 118.125 124.647 147.714 114.298V114.298C149.796 113.57 152.069 113.631 154.114 114.459C162.061 117.676 164.963 119.969 168.214 120.944C170.31 121.573 170.489 123.123 171.675 121.284V121.284C176.054 114.492 158.688 108.353 150.608 108.506L125.134 108.99C124.317 109.006 124.287 108.825 123.55 109.178V109.178C119.88 110.941 112.549 110.87 109.669 107.992L107.135 105.46C105.144 103.47 104.297 100.629 104.936 97.8875C108.621 82.0759 122.077 27.6358 137.782 4.20799C137.929 3.98882 138.269 4.15848 138.182 4.40784C136.11 10.3487 128.832 32.0948 124.233 57.0644C119.691 81.7288 138.064 100.3 163.057 98.219V98.219C167.016 97.8892 168.98 101.306 174.046 107.317C175.792 109.389 180.418 111.168 181.342 108.621V108.621C182.227 106.184 187.405 106.036 186.567 108.491C185.936 110.339 185.601 112.322 185.954 114.188C186.217 115.578 186.945 116.728 187.917 115.702V115.702C189.233 114.313 192.643 112.696 194.108 113.926C195.165 114.813 196.259 115.537 197.016 115.537C197.774 115.537 198.868 114.813 199.924 113.926C201.389 112.696 204.8 114.313 206.115 115.702V115.702C207.088 116.728 207.816 115.578 208.078 114.189C208.432 112.322 208.097 110.339 207.466 108.491C206.628 106.037 211.806 106.184 212.691 108.622V108.622C213.615 111.168 218.24 109.389 219.986 107.318C225.052 101.306 227.016 97.8892 230.976 98.219V98.219C255.969 100.3 274.341 81.7286 269.798 57.0644C265.199 32.0939 257.921 10.3472 255.849 4.40663C255.762 4.15727 256.102 3.98761 256.249 4.20678C271.954 27.6346 285.41 82.0747 289.095 97.8863C289.734 100.628 288.887 103.469 286.896 105.458L284.362 107.991C281.482 110.869 274.151 110.94 270.481 109.177V109.177C269.745 108.823 269.714 109.005 268.898 108.989L243.422 108.505C235.343 108.351 217.976 114.491 222.356 121.283V121.283C223.542 123.122 223.72 121.572 225.816 120.943C229.068 119.968 231.97 117.675 239.917 114.458C241.962 113.63 244.235 113.568 246.317 114.297V114.297C275.907 124.646 306.997 98.6497 299.973 68.0986C292.5 35.5909 281.351 11.6247 277.186 3.3295C277.06 3.07893 277.417 2.86821 277.575 3.10006C294.076 27.4021 307.312 58.3226 313.811 80.9956C318.013 95.6538 319.859 109.796 321.839 119.707C323.184 126.442 318.957 136.536 313.759 141.024V141.024C308.445 145.611 303.271 143.414 296.982 140.295C279.346 131.549 251.799 124.765 240.09 126.106V126.106C229.751 127.29 231.558 136.823 241.963 136.646C242.878 136.63 243.762 136.601 244.608 136.562C250.523 136.29 256.437 138.227 260.622 142.416C286.746 168.565 311.76 186.28 322.651 193.513C326.071 195.784 330.502 195.853 333.998 193.7V193.7C335.237 192.937 336.838 193.797 336.888 195.251C339.577 273.818 303.577 335.89 295.717 348.458C295.569 348.693 295.216 348.499 295.326 348.244C323.975 281.704 321.231 227.609 320.627 211.864C320.57 210.365 319.946 208.941 318.877 207.888C296.91 186.245 274.781 169 254.98 151.96C250.194 147.842 244.195 145.394 237.893 144.943V144.943C233.418 144.624 231.234 150.153 234.674 153.032L250.342 166.143C251.187 166.85 252.311 167.132 253.39 166.907V166.907C255.402 166.488 257.33 167.808 257.554 169.85C258.899 182.145 261.952 224.806 250.33 295.235C237.995 369.99 218.977 387.449 214.73 390.494C214.53 390.638 214.284 390.402 214.416 390.194C250.092 333.849 241.206 205.303 239.716 186.813C239.596 185.322 240.024 183.918 240.922 182.722V182.722C242.503 180.616 242.528 177.706 240.952 175.595C234.629 167.127 229.612 161.664 225.76 158.141C220.756 153.563 216.345 157.387 220.334 162.873V162.873C222.506 165.86 223.435 169.573 222.901 173.228C215.325 225.083 205.241 245.867 200.747 252.946C199.962 254.184 198.416 253.629 198.416 252.163V249.77C198.416 249.175 197.61 248.89 197.015 248.89V248.89V248.89C196.431 248.89 195.615 249.188 195.615 249.773V252.226C195.615 253.669 194.093 254.218 193.318 253.001C188.842 245.976 178.725 225.219 171.129 173.228C170.595 169.573 171.524 165.86 173.697 162.873V162.873C177.686 157.388 173.274 153.563 168.27 158.141C164.418 161.664 159.401 167.127 153.078 175.595C151.502 177.706 151.527 180.616 153.108 182.722V182.722C154.006 183.918 154.434 185.322 154.314 186.813C152.824 205.303 143.939 333.849 179.614 390.194C179.746 390.402 179.5 390.638 179.3 390.494C175.054 387.449 156.035 369.99 143.7 295.235C132.078 224.806 135.131 182.145 136.477 169.85C136.7 167.808 138.628 166.488 140.64 166.907V166.907C141.72 167.132 142.843 166.85 143.689 166.143L159.356 153.032C162.797 150.153 160.612 144.623 156.137 144.943V144.943C149.836 145.394 143.837 147.842 139.05 151.96C119.248 169 97.1201 186.245 75.1526 207.888C74.0838 208.941 73.4602 210.365 73.4028 211.864C72.798 227.609 70.0549 281.704 98.7043 348.244C98.8143 348.499 98.4602 348.693 98.3134 348.458C90.4538 335.89 54.4529 273.818 57.1425 195.252Z" fill="url(#paint0_radial_3179_2145)"/>
<defs>
<radialGradient id="paint0_radial_3179_2145" cx="0" cy="0" r="1" gradientUnits="userSpaceOnUse" gradientTransform="translate(197.351 151.434) rotate(-128.341) scale(114.748 158.77)">
<stop stop-color="#DC7F78"/>
<stop offset="0.543076" stop-color="#D9B9B7"/>
<stop offset="1" stop-color="#B2514A"/>
</radialGradient>
</defs>
</svg>
